<?xml version="1.0" encoding="utf-8" ?>
<svg xmlns="http://www.w3.org/2000/svg" xmlns:xlink="http://www.w3.org/1999/xlink" width="437" height="437">
	<path transform="matrix(-0.00294053 -0.851716 0.851716 -0.00294053 1.50555 437.584)" d="M161.74 449.125C161.74 442.538 161.345 381.424 162.03 380.323C166.405 379.668 172.092 385.157 175.663 387.222C190.143 395.596 207.853 401.536 224.42 403.717C256.724 407.97 299.496 396.813 326.134 379.013C367.443 351.411 393.253 303.507 393.255 253.794C393.255 248.98 393.519 243.826 392.744 239.062L391.164 227.821C376.691 149.86 307.406 99.2784 229.25 104.687C209.169 106.076 188.998 112.881 172 123.721C168.451 125.984 165.682 128.475 161.834 130.252L161.87 35.6353C162.845 35.1048 163.822 34.9732 164.867 34.6669L170.473 32.8641C190.45 26.7736 211.779 23.2709 232.668 22.8138C236.399 22.4234 240.607 22.7872 244.403 22.7866C297.337 22.7774 351.485 42.1818 391.89 76.365C436.597 114.188 467.605 168.165 474.131 226.658L474.912 237.723C477.87 275.358 470.95 314.512 455.031 348.72C433.834 394.269 399.653 432.134 355.801 456.564C325.272 473.573 290.331 484.379 255.332 486.541L226.916 486.638L216.053 485.58C199.87 483.82 176.937 479.254 161.881 472.247C161.548 469.675 161.748 466.874 161.745 464.273L161.74 449.125Z"/>
	<path transform="matrix(-0.00294053 -0.851716 0.851716 -0.00294053 1.50555 437.584)" d="M53.6468 242.309L31.6087 242.207L31.4621 37.5774C31.4663 34.5988 31.2721 31.4515 31.6577 28.4973L95.7036 28.4366L117.162 28.4669L117.051 186.5C116.729 215.604 95.2836 239.376 66.3473 242.13C62.1634 242.528 57.8446 242.362 53.6468 242.309Z"/>
	<path transform="matrix(-0.00294053 -0.851716 0.851716 -0.00294053 1.50555 437.584)" d="M234.711 240.624C212.448 240.692 187.768 238.417 170.673 222.318C154.56 207.143 150.91 185.632 167.024 169.079C182.077 153.615 207.001 148.859 227.807 148.691L228.02 148.6C257.349 147.444 304.811 157.864 305.717 193.688C306.588 228.12 262.075 240.065 234.711 240.624Z"/>
	<path transform="matrix(-0.00294053 -0.851716 0.851716 -0.00294053 1.50555 437.584)" d="M236.554 360.895L223.149 360.788C196.965 359.342 156.991 347.68 156.962 315.539C156.931 281.007 198.237 268.286 226.669 268.191L226.681 268.127C249.319 268.238 274.471 271.015 291.812 287.217C313.798 307.758 308.429 336.665 281.861 350.491C268.288 357.554 251.761 360.624 236.554 360.895Z"/>
	<path transform="matrix(-0.00294053 -0.851716 0.851716 -0.00294053 1.50555 437.584)" d="M109.125 480.268L31.4403 480.302L31.4785 271.55C33.8862 270.985 37.0803 271.3 39.5852 271.268L55.5329 271.256C58.7008 271.258 61.9586 271.111 65.1145 271.377C92.208 273.658 111.583 293.509 116.336 319.763C117.525 326.326 117.053 333.274 117.055 339.924L117.133 480.264L109.125 480.268Z"/>
</svg>
